<?xml version="1.0" standalone="no"?>
<!DOCTYPE svg PUBLIC "-//W3C//DTD SVG 20010904//EN"
 "http://www.w3.org/TR/2001/REC-SVG-20010904/DTD/svg10.dtd">
<svg version="1.0" xmlns="http://www.w3.org/2000/svg"
 width="787.000000pt" height="775.000000pt" viewBox="0 0 787.000000 775.000000"
 preserveAspectRatio="xMidYMid meet">

<g transform="translate(0.000000,775.000000) scale(0.100000,-0.100000)"
fill="#000000" stroke="none">
<path d="M4435 7095 c-259 -47 -528 -167 -724 -323 -18 -15 -34 -18 -72 -14
-57 5 -101 -18 -147 -76 -27 -34 -72 -114 -72 -127 0 -3 20 8 44 25 25 16 49
30 55 30 6 0 -16 -33 -50 -72 -285 -340 -424 -787 -405 -1303 3 -93 10 -199
15 -235 6 -36 7 -68 3 -71 -4 -4 -209 -12 -457 -18 -1855 -46 -1706 -40 -1753
-63 -47 -22 -75 -59 -94 -121 -13 -43 -13 -37 78 -707 154 -1133 150 -1106
192 -1153 24 -27 86 -57 117 -57 21 0 29 -9 49 -52 29 -68 69 -114 117 -138
52 -27 170 -28 221 -2 25 13 42 16 59 10 32 -13 98 -2 133 22 30 19 30 19 58
-5 15 -13 48 -27 73 -31 99 -14 193 42 236 140 l24 56 415 0 c228 0 485 1 570
2 85 0 176 0 201 -1 l47 -1 17 -77 c132 -607 547 -1150 1060 -1389 102 -47
268 -100 376 -120 131 -25 427 -25 559 -1 305 57 615 218 850 444 168 161 287
327 401 558 124 253 172 442 172 680 1 284 -72 520 -232 745 -102 145 -295
312 -450 389 l-63 32 6 37 c3 20 6 46 6 58 0 15 21 34 74 67 94 60 178 150
200 213 22 65 21 141 -4 188 l-19 38 24 48 c14 27 27 67 31 89 6 39 8 41 43
41 115 0 535 23 646 35 245 27 289 45 301 120 27 186 -94 348 -310 414 -37 12
-95 21 -128 21 -74 0 -390 -45 -778 -110 -162 -27 -298 -46 -302 -42 -4 4 8
52 27 107 87 255 39 454 -130 543 -40 21 -64 26 -121 27 l-70 0 -12 135 c-37
410 -186 714 -432 878 -74 50 -199 99 -298 118 -90 17 -282 17 -377 -1z m435
-95 c295 -85 491 -329 569 -710 47 -227 51 -487 11 -646 -30 -117 -71 -198
-353 -699 -145 -259 -264 -489 -340 -660 -40 -91 -116 -288 -132 -342 -7 -24
-20 -30 -30 -13 -9 15 -43 12 -72 -7 -33 -22 -73 -107 -73 -155 0 -34 5 -41
50 -70 48 -31 51 -35 46 -68 -3 -19 -8 -100 -12 -180 -8 -170 6 -264 61 -418
46 -129 114 -239 205 -332 64 -66 91 -85 180 -129 118 -58 197 -76 285 -66 71
8 106 21 174 68 83 58 121 114 167 251 37 108 55 221 55 346 0 130 -10 195
-44 279 l-23 58 50 -5 c81 -6 207 -38 300 -76 124 -50 230 -119 324 -213 51
-51 76 -71 65 -51 -34 58 -169 186 -259 244 -136 89 -348 171 -501 192 l-47 7
51 38 c28 20 87 75 131 121 64 68 88 87 123 96 61 16 119 52 162 99 20 23 41
41 45 41 17 0 211 -125 267 -172 214 -181 358 -423 411 -694 21 -105 23 -335
5 -434 -36 -193 -152 -471 -275 -660 -31 -47 -56 -82 -56 -79 0 3 -9 56 -20
117 -36 200 -112 400 -196 520 -47 67 -191 222 -205 222 -4 0 13 -21 37 -47
65 -69 166 -226 202 -313 58 -142 97 -335 105 -517 l4 -83 -88 -89 c-318 -323
-710 -492 -1132 -490 -78 0 -162 4 -186 7 l-43 7 95 62 c103 68 249 200 315
285 85 112 167 272 186 363 5 29 5 29 -6 5 -6 -14 -23 -52 -38 -86 -93 -207
-294 -404 -544 -533 -55 -28 -105 -56 -113 -62 -17 -15 -100 8 -240 67 -236
99 -447 255 -625 464 -88 103 -225 296 -216 305 2 3 42 -2 89 -10 107 -19 283
-19 390 0 144 25 299 87 374 150 28 24 26 24 -26 -4 -218 -119 -534 -138 -819
-49 l-73 23 -38 88 c-46 104 -90 231 -118 344 -28 107 -27 119 7 131 15 5 124
99 242 207 118 109 250 230 293 269 109 99 111 105 92 216 -9 50 -20 102 -25
116 -6 14 -10 27 -10 28 0 2 21 9 48 16 70 17 229 100 276 143 l41 38 -57 -35
c-141 -87 -304 -141 -377 -126 -20 5 -126 12 -236 15 -240 9 -302 24 -297 71
11 104 122 476 198 662 l18 44 90 -7 c108 -8 321 8 461 36 154 30 350 96 474
160 88 45 61 49 -30 4 -210 -102 -548 -157 -824 -135 -145 11 -316 40 -383 64
-59 21 -158 75 -175 95 -7 9 -19 36 -26 61 -9 29 -29 61 -58 90 l-45 44 -14
126 c-27 239 -14 537 32 737 72 320 232 615 441 814 l48 47 65 -14 c36 -8 91
-27 124 -44 32 -17 60 -29 63 -26 3 2 -30 41 -73 86 -43 45 -74 84 -68 88 160
111 262 166 394 215 192 71 290 87 490 82 100 -3 155 -9 210 -25z m-1137 -312
c26 -17 46 -32 45 -34 -2 -1 -21 1 -43 6 -53 12 -132 12 -174 0 -41 -11 -49
-7 -30 16 50 61 119 65 202 12z m1985 -802 c147 -76 181 -283 86 -516 -23 -57
-25 -69 -14 -103 11 -37 73 -117 91 -117 5 0 2 14 -6 31 -9 17 -14 33 -11 36
17 18 966 163 1062 163 151 0 328 -108 367 -224 20 -58 22 -149 5 -164 -40
-32 -256 -56 -645 -73 l-277 -11 -16 23 c-61 93 -164 152 -300 169 -120 16
-302 -3 -387 -40 -93 -41 -123 -154 -70 -262 l26 -52 -29 -32 c-39 -45 -48
-110 -26 -181 23 -73 97 -147 168 -168 88 -26 239 -14 304 23 15 9 1 11 -64
12 -98 0 -217 17 -252 35 -57 30 -110 112 -110 170 0 39 27 83 61 100 16 9 80
23 142 32 138 20 253 9 347 -33 201 -90 173 -269 -66 -431 -81 -55 -94 -61
-214 -105 l-105 -38 80 5 c44 2 95 7 114 11 l33 7 -7 -34 c-37 -169 -219 -250
-420 -188 -53 16 -78 31 -120 72 -62 61 -75 104 -50 163 14 35 16 36 33 20 36
-31 31 -15 -13 51 -47 70 -75 144 -75 197 0 48 24 135 54 202 l28 61 -23 74
c-20 62 -24 96 -23 204 0 141 -4 123 93 396 25 68 33 114 42 220 15 198 26
267 44 296 16 23 22 25 66 20 26 -3 61 -13 77 -21z m-342 -653 c-39 -115 -40
-121 -41 -253 0 -102 4 -151 19 -200 22 -79 23 -69 -10 -160 -21 -58 -27 -94
-28 -160 -1 -78 2 -90 33 -148 29 -52 32 -66 23 -86 -9 -19 -21 -25 -64 -31
-152 -18 -389 -83 -455 -125 -27 -16 -33 -26 -33 -56 0 -19 4 -43 9 -53 6 -9
62 -41 125 -71 64 -29 116 -57 116 -61 0 -22 -200 -12 -291 15 -94 28 -96 31
-69 112 41 126 131 337 220 516 90 181 126 248 305 563 56 99 118 210 139 248
20 37 38 67 40 67 2 0 -15 -53 -38 -117z m751 -207 c97 -26 176 -94 189 -162
7 -38 -6 -97 -29 -128 -13 -17 -14 -17 -48 3 -51 32 -151 60 -237 67 -68 5
-111 2 -277 -22 -37 -5 -42 -3 -61 28 -30 45 -37 92 -20 132 21 51 56 72 143
85 43 7 85 14 93 16 30 8 196 -5 247 -19z m-2983 -187 c54 -42 43 17 187
-1044 122 -901 118 -835 59 -887 l-30 -28 -660 0 -660 0 0 63 c0 158 -67 239
-207 253 -32 3 -69 1 -83 -4 -20 -8 -30 -5 -53 14 -37 31 -98 48 -179 48 -57
1 -70 -2 -92 -23 -14 -13 -28 -31 -31 -40 -4 -12 -19 -16 -67 -16 -71 -1 -118
-21 -144 -61 -21 -31 -30 -155 -16 -207 7 -23 7 -37 1 -37 -22 0 -67 31 -84
56 -22 34 -17 -2 -210 1427 l-46 338 20 44 c14 32 29 49 53 59 27 12 214 19
988 39 1276 32 1221 32 1254 6z m224 -253 c37 -18 103 -44 147 -56 44 -12 81
-23 83 -25 2 -1 -13 -40 -32 -86 -46 -114 -108 -309 -141 -452 -15 -64 -30
-116 -32 -113 -5 4 -89 600 -99 697 -4 38 -4 69 0 69 4 0 37 -15 74 -34z
m1975 -503 c3 -21 8 -45 11 -54 8 -19 -53 -84 -122 -128 l-49 -31 -142 67
c-95 45 -137 69 -128 75 56 31 285 90 418 107 4 1 9 -16 12 -36z m91 -142 c33
-30 119 -70 191 -88 l66 -16 -33 -34 c-170 -177 -436 -265 -674 -222 -133 23
-321 96 -444 171 -24 15 -22 54 5 94 l15 23 73 -34 c86 -40 197 -71 282 -80
142 -14 321 48 432 150 32 30 60 54 62 55 3 0 14 -9 25 -19z m-1640 -281 c105
-6 194 -14 200 -20 7 -7 0 -20 -20 -41 -45 -49 -474 -419 -484 -419 -6 0 -10
8 -10 18 0 9 -2 26 -5 37 -4 16 32 52 184 180 104 88 190 165 190 172 1 16
-46 21 -247 29 -165 6 -174 8 -182 28 -4 11 -6 24 -3 29 2 4 46 5 96 2 51 -3
177 -10 281 -15z m1066 -118 c85 -24 112 -27 260 -26 153 0 171 2 248 28 80
26 85 27 103 10 32 -28 88 -153 104 -229 27 -129 16 -274 -35 -463 -26 -97
-81 -186 -141 -230 -90 -67 -287 -61 -408 11 -29 17 -84 61 -121 97 -196 189
-292 476 -260 774 5 54 12 102 15 106 3 5 36 -5 73 -21 37 -17 110 -43 162
-57z m-1402 46 c-6 -18 -28 -21 -28 -4 0 9 7 16 16 16 9 0 14 -5 12 -12z m92
-7 c0 -18 -50 -49 -71 -44 -20 6 -20 6 2 29 22 23 69 33 69 15z m108 0 c24 -6
24 -6 -7 -29 -19 -13 -45 -22 -67 -22 l-38 0 29 30 c29 30 41 33 83 21z m132
-10 c0 -18 -53 -51 -81 -51 -35 0 -36 6 -7 37 22 23 88 33 88 14z m239 -103
c1 -34 -6 -43 -101 -129 -57 -51 -105 -95 -108 -98 -3 -4 -59 -55 -125 -115
-66 -61 -136 -125 -155 -142 l-35 -33 -1 72 0 72 129 110 c71 61 186 160 255
222 136 119 140 120 141 41z m-559 38 c0 -2 -7 -9 -15 -16 -12 -10 -15 -10
-15 4 0 9 7 16 15 16 8 0 15 -2 15 -4z m97 -6 c14 0 13 -3 -3 -21 -28 -31 -48
-39 -79 -31 l-28 8 33 27 c18 16 39 26 47 23 8 -4 22 -6 30 -6z m127 -8 c9
-15 -52 -52 -84 -52 -37 0 -38 12 -4 39 27 21 78 28 88 13z m-216 -84 c-6 -18
-28 -21 -28 -4 0 9 7 16 16 16 9 0 14 -5 12 -12z m105 2 c21 0 21 -1 -5 -26
-21 -22 -31 -25 -58 -19 l-32 7 23 24 c13 14 29 22 37 19 7 -3 23 -5 35 -5z
m-73 -78 c0 -12 -23 -32 -37 -32 -7 0 -13 9 -13 20 0 15 7 20 25 20 14 0 25
-4 25 -8z m-1892 -157 c28 -9 54 -20 57 -26 4 -5 2 -32 -5 -58 -15 -63 1 -185
39 -299 31 -93 29 -100 -37 -109 -104 -14 -185 89 -227 289 -20 91 -19 168 1
196 12 18 25 22 68 22 29 0 75 -7 104 -15z m243 -45 c102 -19 135 -79 126
-222 l-6 -88 48 0 c26 0 50 -3 54 -6 8 -8 -19 -62 -47 -92 -51 -57 -152 -74
-204 -35 -67 49 -111 164 -119 310 -6 98 0 117 42 133 27 12 44 12 106 0z
m-473 -60 c9 -125 48 -255 103 -340 l39 -61 -26 -9 c-68 -26 -150 -4 -201 53
-79 90 -114 316 -57 378 15 16 28 19 78 17 l61 -3 3 -35z"/>
<path d="M4599 6776 c-83 -29 -139 -79 -205 -182 -19 -29 -34 -55 -34 -58 0
-2 30 16 66 40 79 53 153 76 242 75 55 0 79 -6 134 -34 38 -18 68 -31 68 -29
0 9 -52 76 -89 115 -67 71 -123 94 -182 73z m84 -40 c18 -7 40 -22 49 -32 17
-19 16 -20 -51 -16 -45 3 -88 -2 -126 -13 -31 -9 -59 -14 -62 -12 -7 7 58 54
97 71 44 19 53 19 93 2z"/>
<path d="M3602 6251 c-48 -12 -108 -56 -142 -103 -45 -62 -63 -135 -58 -237 5
-102 33 -166 97 -224 51 -46 62 -48 23 -3 -91 104 -97 317 -11 437 36 51 105
89 161 89 56 0 98 -18 147 -64 l33 -31 -15 30 c-40 79 -147 128 -235 106z"/>
<path d="M4595 6251 c-105 -26 -183 -121 -199 -241 l-6 -45 20 49 c46 116 116
177 209 184 66 5 97 -8 150 -60 101 -99 108 -302 15 -424 -35 -45 -35 -46 -7
-26 41 29 58 50 89 112 25 48 28 66 29 145 0 76 -4 98 -26 145 -14 30 -38 69
-53 87 -47 56 -152 91 -221 74z"/>
<path d="M4580 6118 c-79 -52 -104 -181 -56 -285 73 -156 246 -77 246 112 0
142 -100 233 -190 173z m140 -68 c23 -43 -25 -82 -66 -55 -31 20 -29 55 5 71
28 14 48 9 61 -16z"/>
<path d="M3674 6100 c-47 -19 -84 -99 -84 -183 1 -110 55 -190 129 -190 55 0
88 25 117 86 44 95 20 235 -49 280 -28 18 -78 21 -113 7z m130 -71 c21 -30 2
-69 -34 -69 -47 0 -66 42 -34 74 22 22 50 20 68 -5z"/>
<path d="M3905 5803 c-54 -124 -101 -182 -213 -259 -8 -5 77 -111 117 -146 45
-41 63 -45 101 -22 25 15 25 15 -12 9 -37 -6 -39 -4 -84 57 -25 35 -48 68 -50
73 -2 6 22 38 55 72 41 43 66 81 81 119 22 61 45 153 38 159 -2 2 -17 -25 -33
-62z"/>
<path d="M4735 5473 c-104 -68 -302 -137 -505 -175 -96 -19 -152 -22 -342 -23
-126 0 -228 -1 -228 -2 0 -1 20 -96 45 -211 67 -313 96 -384 163 -401 112 -29
447 -42 525 -20 87 24 134 97 222 343 24 66 57 153 73 191 30 70 66 173 95
273 19 61 12 64 -48 25z m-9 -85 c-5 -28 -16 -39 -64 -65 -206 -113 -505 -181
-757 -171 -115 4 -115 4 -150 38 -19 19 -35 37 -35 42 0 4 75 7 168 7 245 0
395 23 603 91 63 21 142 51 175 68 32 16 61 28 63 26 2 -1 1 -18 -3 -36z"/>
<path d="M3891 3408 c-57 -50 -59 -53 -51 -93 l5 -30 58 54 c43 41 57 61 57
82 0 16 -4 29 -10 29 -5 0 -32 -19 -59 -42z m49 -3 c0 -8 -75 -74 -79 -69 -6
5 60 74 71 74 4 0 8 -2 8 -5z"/>
<path d="M3683 3230 c-42 -38 -53 -55 -53 -79 0 -17 5 -31 11 -31 6 0 35 24
64 53 46 44 53 56 48 80 -3 15 -8 27 -12 27 -3 -1 -30 -23 -58 -50z m20 -32
c-23 -23 -45 -39 -48 -36 -8 7 65 77 80 78 5 0 -9 -19 -32 -42z"/>
</g>
</svg>
